<?xml version="1.0" encoding="utf-8"?>
<!-- Generator: Adobe Illustrator 22.1.0, SVG Export Plug-In . SVG Version: 6.00 Build 0)  -->
<svg version="1.1" id="Layer_1" xmlns="http://www.w3.org/2000/svg" xmlns:xlink="http://www.w3.org/1999/xlink" x="0px" y="0px"
	 viewBox="0 0 1000 1000" style="enable-background:new 0 0 1000 1000;" xml:space="preserve">
<style type="text/css">
	.st0{fill:#118B44;}
</style>
<g>
	<g transform="translate(0.000000,511.000000) scale(0.100000,-0.100000)">
		<path class="st0" d="M3591.5,4995.3c-222.9-45-617.7-282.3-1043.2-627.9c-276.1-225-924.5-873.4-1149.5-1149.5
			c-362-445.9-587-824.3-630-1065.7c-14.3-77.7-18.4-1075.9-14.3-2986.3c4.1-2697.9,8.2-2879.9,43-2994.5
			c106.4-353.8,374.3-675,687.3-824.3c306.8-145.2,135-137,2873.8-137c2337.9,0,2483.1,2,2607.9,36.8
			c439.8,124.8,816.1,499.1,928.6,924.5c18.4,67.5,38.8,245.4,47,394.8l12.3,270h-327.3h-329.3l-8.2-259.8
			c-6.1-225-14.3-274.1-55.2-353.9c-63.4-124.8-175.9-237.2-298.6-302.7l-102.3-55.2l-2462.7-6.1l-2462.7-4.1l-114.5,51.1
			c-141.1,65.5-253.6,171.8-325.2,306.8l-55.2,102.3L1407-809.6l-4.1,2877.9l597.3,10.2c666.8,10.2,732.3,20.5,987.9,153.4
			c194.3,100.2,445.9,351.8,546.1,546.1c133,255.7,143.2,321.1,153.4,987.9l10.2,597.3l1568.8-4.1l1566.8-6.1l102.3-55.2
			c135-71.6,241.4-184.1,304.8-323.2l53.2-112.5v-1712v-1714H7621h329.3l-8.2,1744.7c-6.1,1937,2,1812.2-149.3,2121.1
			c-100.2,202.5-345.7,450-550.2,556.4c-296.6,153.4-204.6,147.3-1973.8,151.4C4389.2,5011.7,3642.6,5005.5,3591.5,4995.3z"/>
		<path class="st0" d="M3245.8,86.3C3104.7,59.7,2986-9.8,2887.9-118.2c-165.7-184.1-165.7-184.1-165.7-1245.6
			c0-1090.2-2.1-1073.8,192.3-1270.2c210.7-208.6-65.4-192.3,3070.1-192.3c3135.6,0,2859.5-16.4,3070.1,192.3
			C9249-2437.6,9247-2454,9247-1363.8S9249-290,9054.7-93.7C8844,117,9126.3,98.6,6035.7,102.7
			C4550.8,102.7,3294.9,96.5,3245.8,86.3z M4511.9-578.4c198.4-59.3,327.3-165.7,417.3-347.7c28.6-59.3,53.2-110.4,53.2-116.6
			c0-4.1-55.2-20.5-124.8-32.7c-69.5-14.3-137-30.7-151.4-34.8c-16.4-6.1-43,26.6-71.6,81.8c-77.7,163.6-206.6,237.3-411.1,237.3
			c-132.9,0-294.5-53.2-374.3-122.7c-208.6-184.1-222.9-664.8-26.6-875.4c153.4-165.7,490.9-194.3,691.3-59.3
			c57.3,38.9,153.4,184.1,186.1,280.2c6.1,20.4,36.8,18.4,147.3-6.1c75.7-16.4,143.2-36.8,149.3-43
			c24.5-22.5-63.4-204.5-145.2-306.8c-59.3-71.6-128.9-126.8-225-175.9c-124.8-63.4-159.5-71.6-339.5-77.7
			c-329.3-14.3-525.7,51.1-707.7,231.1c-157.5,157.5-200.4,284.3-202.5,593.2c0,210.7,6.1,259.8,45,343.6
			c98.2,212.7,241.4,337.5,474.5,417.3C4064-535.5,4346.2-529.3,4511.9-578.4z M6352.8-578.4c190.2-55.2,310.9-155.4,366.1-300.7
			c20.5-51.1,16.4-55.2-55.2-75.7c-40.9-12.3-112.5-26.6-157.5-32.7c-75.7-10.2-83.9-6.1-116.6,51.1
			c-55.2,98.2-145.2,132.9-343.6,132.9c-204.6,0-310.9-40.9-347.7-130.9c-51.1-122.7,28.6-177.9,347.7-245.4
			c325.2-67.5,513.4-135,611.6-216.8c110.4-94.1,145.2-165.7,145.2-294.5c0-141.1-38.9-220.9-149.3-319.1
			c-135-118.6-306.8-171.8-562.5-171.8c-345.7,0-568.6,87.9-693.4,274.1c-100.2,147.3-94.1,163.6,81.8,202.5
			c98.2,20.5,149.3,24.6,155.5,10.2c18.4-55.2,135-159.5,212.7-190.2c102.3-40.9,331.4-47,462.3-12.3
			c169.8,47.1,241.3,190.2,141.1,282.3c-75.7,67.5-124.8,85.9-378.4,139.1c-431.6,92-591.1,169.8-660.7,323.2
			c-110.4,243.4,40.9,497,347.7,578.8C5894.6-537.5,6221.9-539.6,6352.8-578.4z M7528.9-1188c135-353.8,251.6-638.2,257.7-630
			c8.2,8.2,116.6,276.1,243.4,597.3c126.8,321.1,239.3,603.4,251.6,630c18.4,40.9,34.8,45,171.8,45c81.8,0,149.3-4.1,149.3-8.2
			c0-8.2-378.4-914.3-640.2-1532l-40.9-98.2l-143.2,6.2l-145.2,6.1L7310-1394.5c-178,427.5-329.3,793.6-335.4,814.1
			c-10.2,30.7,6.1,34.8,149.3,34.8h159.5L7528.9-1188z"/>
	</g>
</g>
</svg>
