<?xml version="1.0" encoding="UTF-8"?>
<svg width="11px" height="11px" viewBox="0 0 11 11" version="1.1" xmlns="http://www.w3.org/2000/svg" xmlns:xlink="http://www.w3.org/1999/xlink">
    <!-- Generator: Sketch 52.3 (67297) - http://www.bohemiancoding.com/sketch -->
    <title>edit icon</title>
    <desc>Created with Sketch.</desc>
    <g id="Dec-Release-V-2.0" stroke="none" stroke-width="1" fill="none" fill-rule="evenodd">
        <g id="Radio-Stations-Dc-V2.0" transform="translate(-423.000000, -983.000000)" fill="#FFFFFF">
            <g id="date-and-time" transform="translate(287.000000, 965.000000)">
                <g id="edit-icon" transform="translate(136.000000, 18.000000)">
                    <path d="M9.8870538,6.81018552 C9.73969269,6.81018552 9.62026144,6.93623965 9.62026144,7.09177238 L9.62026144,9.59195572 C9.61974034,10.058334 9.26175921,10.4362763 8.81988437,10.4367163 L1.33396179,10.4367163 C0.892086944,10.4362763 0.534105786,10.058334 0.533584714,9.59195572 L0.533584714,2.25408814 C0.534105786,1.78781989 0.892086944,1.40987753 1.33396179,1.40932756 L3.7027861,1.40932756 C3.8501472,1.40932756 3.96957845,1.28327343 3.96957845,1.12774071 C3.96957845,0.972317966 3.8501472,0.846153846 3.7027861,0.846153846 L1.33396179,0.846153846 C0.597573207,0.847033805 0.000833726115,1.4768644 -2.0783375e-13,2.25408814 L-2.0783375e-13,9.5920657 C0.000833726115,10.3692894 0.597573207,10.99912 1.33396179,11 L8.81988437,11 C9.55627295,10.99912 10.1530124,10.3692894 10.1538462,9.5920657 L10.1538462,7.09177238 C10.1538462,6.93623965 10.0344149,6.81018552 9.8870538,6.81018552 Z" id="Path"></path>
                    <path d="M10.3537004,0.342159553 C9.89744716,-0.114053184 9.15774694,-0.114053184 8.70149369,0.342159553 L4.0697981,4.97344407 C4.03805611,5.00518325 4.01513695,5.0445277 4.00317033,5.08772543 L3.39408899,7.28644986 C3.36904018,7.37659725 3.39449461,7.47313305 3.46061535,7.5393493 C3.52683748,7.60546415 3.62338184,7.63091635 3.71353724,7.60597116 L5.91245683,6.99684248 C5.95565839,6.98487689 5.9950063,6.96195979 6.02674832,6.93022059 L10.6583425,2.29883467 C11.1138858,1.84231772 11.1138858,1.10329159 10.6583425,0.646774606 L10.3537004,0.342159553 Z M4.23076923,5.5311948 L8.06963129,1.69230769 L9.30769231,2.93034366 L5.46872752,6.76923077 L4.23076923,5.5311948 Z M4.69964085,5.07692308 L5.92307692,6.30039434 L4.23076923,6.76923077 L4.69964085,5.07692308 Z M9.96356354,2.26242991 L9.68748217,2.53846154 L8.46153846,1.3127388 L8.73772151,1.03670717 C8.99183841,0.782636071 9.4038759,0.782636071 9.6579928,1.03670717 L9.96356354,1.34212117 C10.2172737,1.59649728 10.2172737,2.00815548 9.96356354,2.26242991 Z" id="Shape" fill-rule="nonzero"></path>
                </g>
            </g>
        </g>
    </g>
</svg>